<svg xmlns="http://www.w3.org/2000/svg" xmlns:xlink="http://www.w3.org/1999/xlink" width="1366" zoomAndPan="magnify" viewBox="0 0 1024.5 576" height="768" preserveAspectRatio="xMidYMid meet" version="1.2"><defs><clipPath id="f0e0d79713"><path d="M 204 270 L 846 270 L 846 575.859375 L 204 575.859375 Z M 204 270 "/></clipPath><clipPath id="8e919c5531"><path d="M 122 87 L 894.378906 87 L 894.378906 455 L 122 455 Z M 122 87 "/></clipPath></defs><g id="8fa6e341de"><path style=" stroke:none;fill-rule:nonzero;fill:#f5e8df;fill-opacity:1;" d="M 827.980469 385.171875 C 827.980469 385.171875 804.5625 450.378906 837.980469 502.847656 L 422.066406 567.207031 C 422.066406 567.207031 377.71875 510.390625 381.132812 457.429688 C 384.550781 404.464844 412.613281 394.164062 412.613281 394.164062 Z M 827.980469 385.171875 "/><g clip-rule="nonzero" clip-path="url(#f0e0d79713)"><path style=" stroke:none;fill-rule:nonzero;fill:#f77b19;fill-opacity:1;" d="M 229.152344 312.398438 C 229.152344 312.398438 169.417969 372.792969 234.644531 433.105469 L 422.640625 575.953125 L 841.941406 506.867188 C 844.320312 506.484375 845.988281 504.324219 845.796875 501.921875 C 845.578125 499.242188 843.144531 497.300781 840.46875 497.710938 L 426.847656 561.550781 C 426.847656 561.550781 390.589844 506.675781 414.003906 441.46875 L 831.832031 390.28125 C 834.292969 389.984375 836.09375 387.769531 835.878906 385.308594 L 835.824219 384.652344 C 835.6875 382.960938 834.621094 381.484375 833.0625 380.800781 L 623.316406 270.9375 Z M 229.152344 312.398438 "/></g><path style=" stroke:none;fill-rule:nonzero;fill:#000000;fill-opacity:1;" d="M 426.246094 464.234375 C 424.882812 464.234375 423.707031 463.222656 423.542969 461.855469 C 423.351562 460.355469 424.417969 458.988281 425.917969 458.796875 L 808.960938 410.398438 C 810.4375 410.234375 811.832031 411.273438 812.023438 412.773438 C 812.214844 414.277344 811.148438 415.644531 809.644531 415.835938 L 426.601562 464.234375 C 426.492188 464.234375 426.355469 464.234375 426.246094 464.234375 Z M 426.246094 464.234375 "/><path style=" stroke:none;fill-rule:nonzero;fill:#000000;fill-opacity:1;" d="M 425.863281 490.605469 C 424.5 490.605469 423.324219 489.59375 423.160156 488.230469 C 422.96875 486.726562 424.035156 485.359375 425.535156 485.167969 L 805.957031 436.988281 C 807.457031 436.796875 808.824219 437.863281 809.015625 439.363281 C 809.207031 440.867188 808.140625 442.234375 806.640625 442.425781 L 426.21875 490.605469 C 426.082031 490.605469 425.972656 490.605469 425.863281 490.605469 Z M 425.863281 490.605469 "/><path style=" stroke:none;fill-rule:nonzero;fill:#000000;fill-opacity:1;" d="M 435.320312 539.851562 C 433.980469 539.851562 432.804688 538.867188 432.613281 537.503906 C 432.394531 536 433.433594 534.632812 434.9375 534.414062 L 812.296875 481.234375 C 813.824219 481.015625 815.164062 482.050781 815.382812 483.554688 C 815.601562 485.058594 814.5625 486.425781 813.0625 486.644531 L 435.703125 539.824219 C 435.566406 539.851562 435.457031 539.851562 435.320312 539.851562 Z M 435.320312 539.851562 "/><path style=" stroke:none;fill-rule:nonzero;fill:#000000;fill-opacity:1;" d="M 427.859375 514.136719 C 426.519531 514.136719 425.34375 513.125 425.152344 511.757812 C 424.964844 510.253906 426 508.890625 427.503906 508.699219 L 807.703125 457.894531 C 809.207031 457.703125 810.574219 458.742188 810.765625 460.246094 C 810.957031 461.746094 809.917969 463.113281 808.414062 463.304688 L 428.242188 514.109375 C 428.105469 514.136719 427.996094 514.136719 427.859375 514.136719 Z M 427.859375 514.136719 "/><path style=" stroke:none;fill-rule:nonzero;fill:#000000;fill-opacity:1;" d="M 414.003906 444.203125 C 413.460938 444.203125 412.914062 444.039062 412.449219 443.710938 L 227.566406 314.636719 C 226.335938 313.761719 226.035156 312.070312 226.882812 310.839844 C 227.757812 309.609375 229.453125 309.28125 230.683594 310.15625 L 415.5625 439.230469 C 416.792969 440.101562 417.09375 441.796875 416.246094 443.027344 C 415.726562 443.792969 414.878906 444.203125 414.003906 444.203125 Z M 414.003906 444.203125 "/><path style=" stroke:none;fill-rule:nonzero;fill:#f5e8df;fill-opacity:1;" d="M 885.664062 212.347656 C 885.664062 212.347656 856.972656 268.726562 883.640625 319.800781 L 564.566406 442.234375 L 495.515625 383.585938 L 493.765625 306.355469 C 493.765625 306.355469 724.71875 235.140625 727.96875 232.023438 C 731.222656 228.960938 885.664062 212.347656 885.664062 212.347656 Z M 885.664062 212.347656 "/><g clip-rule="nonzero" clip-path="url(#8e919c5531)"><path style=" stroke:none;fill-rule:nonzero;fill:#2aa1b7;fill-opacity:1;" d="M 564.566406 442.234375 C 527.351562 386.675781 566.835938 321.769531 566.835938 321.769531 L 890.226562 210.789062 C 892.632812 209.96875 894.269531 207.78125 894.324219 205.324219 L 894.40625 201.03125 C 894.433594 199.613281 893.476562 198.382812 892.058594 198.054688 L 441.25 87.210938 C 440.703125 87.074219 440.128906 87.074219 439.582031 87.238281 L 147.859375 167.773438 C 147.421875 167.882812 147.011719 168.101562 146.65625 168.402344 C 146.191406 168.785156 99.796875 207.917969 137.421875 280.285156 C 137.75 280.914062 138.324219 281.433594 138.980469 281.707031 L 563.089844 454.367188 C 563.472656 454.53125 563.910156 454.613281 564.320312 454.613281 C 564.730469 454.613281 565.140625 454.53125 565.523438 454.394531 L 890.007812 327.480469 C 891.210938 327.015625 892.03125 325.871094 892.058594 324.613281 L 892.085938 322.863281 C 892.140625 319.828125 889.023438 317.753906 886.101562 318.902344 Z M 564.566406 442.234375 "/></g><path style=" stroke:none;fill-rule:nonzero;fill:#000000;fill-opacity:1;" d="M 566.835938 324.503906 C 566.535156 324.503906 566.207031 324.449219 565.90625 324.339844 L 147.777344 173.292969 C 146.355469 172.773438 145.617188 171.21875 146.136719 169.796875 C 146.65625 168.375 148.214844 167.636719 149.636719 168.15625 L 567.765625 319.175781 C 569.183594 319.695312 569.921875 321.25 569.402344 322.671875 C 568.992188 323.820312 567.953125 324.503906 566.835938 324.503906 Z M 566.835938 324.503906 "/><path style=" stroke:none;fill-rule:nonzero;fill:#000000;fill-opacity:1;" d="M 582.492188 347.867188 C 581.371094 347.867188 580.332031 347.1875 579.921875 346.09375 C 579.402344 344.671875 580.113281 343.113281 581.535156 342.566406 L 869.078125 235.765625 C 870.496094 235.246094 872.054688 235.957031 872.601562 237.378906 C 873.148438 238.800781 872.410156 240.359375 870.988281 240.90625 L 583.449219 347.707031 C 583.121094 347.816406 582.820312 347.867188 582.492188 347.867188 Z M 582.492188 347.867188 "/><path style=" stroke:none;fill-rule:nonzero;fill:#000000;fill-opacity:1;" d="M 580.960938 415.507812 C 579.839844 415.507812 578.804688 414.824219 578.394531 413.730469 C 577.875 412.308594 578.585938 410.753906 580.003906 410.207031 L 867.546875 303.40625 C 868.96875 302.886719 870.523438 303.597656 871.070312 305.019531 C 871.589844 306.4375 870.878906 307.996094 869.460938 308.542969 L 581.917969 415.34375 C 581.589844 415.453125 581.261719 415.507812 580.960938 415.507812 Z M 580.960938 415.507812 "/><path style=" stroke:none;fill-rule:nonzero;fill:#000000;fill-opacity:1;" d="M 572.246094 375.828125 C 571.125 375.828125 570.085938 375.144531 569.675781 374.050781 C 569.15625 372.628906 569.867188 371.070312 571.289062 370.523438 L 858.828125 263.722656 C 860.25 263.207031 861.808594 263.914062 862.355469 265.335938 C 862.875 266.757812 862.164062 268.316406 860.742188 268.863281 L 573.203125 375.664062 C 572.875 375.773438 572.574219 375.828125 572.246094 375.828125 Z M 572.246094 375.828125 "/><path style=" stroke:none;fill-rule:nonzero;fill:#000000;fill-opacity:1;" d="M 571.753906 397.359375 C 570.632812 397.359375 569.59375 396.679688 569.183594 395.585938 C 568.664062 394.164062 569.375 392.605469 570.796875 392.058594 L 858.339844 285.257812 C 859.757812 284.738281 861.316406 285.449219 861.863281 286.871094 C 862.410156 288.292969 861.671875 289.851562 860.25 290.398438 L 572.710938 397.195312 C 572.382812 397.304688 572.082031 397.359375 571.753906 397.359375 Z M 571.753906 397.359375 "/><path style=" stroke:none;fill-rule:nonzero;fill:#f5e8df;fill-opacity:1;" d="M 826.175781 107.980469 C 826.175781 107.980469 797.320312 170.972656 826.175781 226.09375 L 406.273438 254.980469 C 406.273438 254.980469 366.898438 194.609375 374.792969 142.113281 C 382.664062 89.613281 411.546875 81.742188 411.546875 81.742188 Z M 826.175781 107.980469 "/><path style=" stroke:none;fill-rule:nonzero;fill:#ff574c;fill-opacity:1;" d="M 264.566406 16.128906 C 264.566406 16.128906 199.914062 71.25 259.808594 136.863281 L 406.082031 263.695312 L 829.757812 230.410156 C 832.160156 230.21875 834.019531 228.226562 834.019531 225.820312 C 834.046875 223.140625 831.75 220.984375 829.074219 221.175781 L 411.546875 249.703125 C 411.546875 249.703125 380.066406 191.960938 408.921875 128.96875 L 829.59375 113.390625 C 832.078125 113.308594 834.046875 111.257812 834.046875 108.769531 L 834.046875 108.117188 C 834.046875 106.421875 833.117188 104.863281 831.640625 104.042969 L 660.832031 8.257812 Z M 264.566406 16.128906 "/><path style=" stroke:none;fill-rule:nonzero;fill:#000000;fill-opacity:1;" d="M 419.390625 152.714844 C 417.941406 152.714844 416.710938 151.566406 416.65625 150.09375 C 416.601562 148.589844 417.777344 147.304688 419.28125 147.25 L 805.054688 131.507812 C 806.53125 131.425781 807.839844 132.628906 807.894531 134.132812 C 807.949219 135.636719 806.777344 136.917969 805.273438 136.972656 L 419.496094 152.714844 C 419.46875 152.714844 419.441406 152.714844 419.390625 152.714844 Z M 419.390625 152.714844 "/><path style=" stroke:none;fill-rule:nonzero;fill:#000000;fill-opacity:1;" d="M 416.765625 178.953125 C 415.316406 178.953125 414.085938 177.804688 414.03125 176.328125 C 413.976562 174.824219 415.152344 173.539062 416.65625 173.484375 L 799.808594 157.746094 C 801.285156 157.691406 802.59375 158.863281 802.648438 160.367188 C 802.703125 161.871094 801.53125 163.15625 800.027344 163.210938 L 416.875 178.953125 C 416.847656 178.953125 416.820312 178.953125 416.765625 178.953125 Z M 416.765625 178.953125 "/><path style=" stroke:none;fill-rule:nonzero;fill:#000000;fill-opacity:1;" d="M 422.039062 228.824219 C 420.589844 228.824219 419.390625 227.707031 419.308594 226.257812 C 419.226562 224.753906 420.371094 223.46875 421.875 223.386719 L 802.402344 202.398438 C 803.851562 202.289062 805.191406 203.464844 805.273438 204.96875 C 805.355469 206.472656 804.207031 207.753906 802.703125 207.835938 L 422.175781 228.824219 C 422.121094 228.824219 422.066406 228.824219 422.039062 228.824219 Z M 422.039062 228.824219 "/><path style=" stroke:none;fill-rule:nonzero;fill:#000000;fill-opacity:1;" d="M 416.765625 202.589844 C 415.316406 202.589844 414.113281 201.441406 414.03125 199.996094 C 413.949219 198.492188 415.125 197.207031 416.628906 197.125 L 799.78125 178.761719 C 801.257812 178.707031 802.566406 179.851562 802.648438 181.355469 C 802.730469 182.859375 801.558594 184.144531 800.054688 184.226562 L 416.902344 202.589844 C 416.875 202.589844 416.820312 202.589844 416.765625 202.589844 Z M 416.765625 202.589844 "/><path style=" stroke:none;fill-rule:nonzero;fill:#000000;fill-opacity:1;" d="M 408.894531 131.726562 C 408.320312 131.726562 407.722656 131.535156 407.203125 131.152344 L 262.898438 18.285156 C 261.722656 17.355469 261.503906 15.636719 262.433594 14.460938 C 263.363281 13.257812 265.085938 13.066406 266.257812 13.996094 L 410.589844 126.863281 C 411.765625 127.792969 411.984375 129.515625 411.054688 130.6875 C 410.535156 131.371094 409.714844 131.726562 408.894531 131.726562 Z M 408.894531 131.726562 "/></g></svg>