<svg xmlns="http://www.w3.org/2000/svg" xmlns:xlink="http://www.w3.org/1999/xlink" width="1366" zoomAndPan="magnify" viewBox="0 0 1024.5 576" height="768" preserveAspectRatio="xMidYMid meet" version="1.2"><defs><clipPath id="841a5ecd94"><path d="M 229.910156 87 L 794 87 L 794 559 L 229.910156 559 Z M 229.910156 87 "/></clipPath></defs><g id="9f8be92954"><g clip-rule="nonzero" clip-path="url(#841a5ecd94)"><path style=" stroke:none;fill-rule:nonzero;fill:#f7f7f9;fill-opacity:1;" d="M 793.726562 163.136719 C 794.082031 166.078125 791.492188 169.023438 785.25 170.789062 C 695.753906 195.636719 515.585938 255.691406 510.640625 255.691406 C 505.109375 255.691406 362.859375 207.648438 342.25 202.230469 C 341.191406 201.996094 334.480469 206.941406 332.359375 213.535156 C 330.828125 218.246094 331.652344 220.246094 331.417969 290.902344 C 331.417969 293.019531 338.835938 294.199219 339.894531 303.972656 C 340.957031 313.273438 332.949219 320.222656 324.585938 320.222656 C 313.519531 320.222656 306.335938 308.683594 311.164062 298.320312 C 313.753906 292.785156 317.875 292.785156 317.875 291.726562 C 317.875 291.84375 317.640625 226.960938 318.109375 217.773438 C 318.816406 204.46875 327.296875 193.636719 336.832031 189.511719 C 350.609375 183.625 394.417969 173.5 420.910156 167.257812 C 427.625 165.726562 328.707031 167.140625 316.816406 193.28125 C 316.34375 194.222656 313.753906 191.515625 238.390625 170.90625 C 232.03125 169.140625 229.910156 166.199219 229.910156 163.605469 C 229.910156 158.777344 235.09375 158.191406 236.035156 157.953125 C 265.121094 149.710938 469.898438 96.722656 506.519531 87.890625 C 510.171875 86.949219 514.058594 86.949219 517.707031 87.773438 C 536.546875 92.128906 586.949219 107.203125 785.25 156.304688 C 790.195312 157.367188 793.375 160.191406 793.726562 163.136719 Z M 665.726562 337.53125 C 644.765625 376.039062 524.417969 424.671875 510.523438 424.671875 C 495.332031 424.671875 423.503906 405.476562 356.851562 338.828125 C 354.261719 336.238281 348.136719 322.460938 363.328125 220.484375 C 363.445312 219.660156 504.636719 267.46875 510.761719 267.234375 C 519.472656 266.878906 541.847656 258.519531 659.484375 220.601562 C 660.308594 220.128906 678.089844 314.6875 665.726562 337.53125 Z M 369.570312 297.496094 C 377.105469 304.207031 377.578125 305.148438 377.578125 303.738281 C 376.28125 284.660156 379.34375 264.878906 381.464844 245.917969 C 381.464844 245.328125 381.464844 245.566406 375.339844 241.796875 C 373.691406 240.972656 367.097656 295.257812 369.570312 297.496094 Z M 402.660156 352.371094 C 387.234375 343.421875 367.566406 307.859375 367.566406 307.976562 C 368.15625 310.683594 366.625 320.222656 368.511719 324.578125 C 370.628906 329.054688 398.300781 352.722656 402.660156 352.371094 Z M 371.453125 538.191406 C 371.808594 540.898438 368.980469 543.371094 366.039062 544.3125 C 363.09375 545.253906 359.914062 544.546875 359.207031 540.78125 C 358.148438 534.421875 354.261719 501.449219 346.960938 472.246094 C 344.371094 462.117188 350.847656 543.839844 350.847656 547.84375 C 350.847656 549.613281 349.199219 551.96875 346.371094 552.910156 C 345.664062 553.144531 340.484375 554.910156 338.835938 549.613281 C 338.128906 547.257812 337.777344 543.722656 336.953125 539.015625 C 336.597656 536.894531 336.714844 538.894531 335.183594 552.671875 C 334.832031 555.96875 332.125 557.972656 329.179688 558.5625 C 325.410156 559.269531 321.171875 557.382812 320.9375 552.792969 C 318.347656 512.402344 320.347656 526.414062 316.699219 548.90625 C 316.226562 551.730469 313.636719 553.261719 311.046875 553.261719 C 308.101562 553.261719 305.15625 551.261719 305.394531 547.140625 C 307.511719 508.984375 305.15625 492.851562 304.804688 492.5 C 303.15625 490.851562 298.210938 540.664062 295.148438 543.722656 C 293.617188 545.253906 291.378906 545.253906 287.613281 543.722656 C 284.433594 542.429688 283.019531 539.957031 283.253906 536.304688 C 294.207031 404.183594 294.089844 386.636719 311.046875 363.085938 C 311.515625 362.496094 306.6875 363.085938 305.746094 358.492188 C 305.394531 356.84375 306.570312 342.597656 307.984375 335.414062 C 309.867188 325.875 336.714844 328.9375 339.425781 331.644531 C 342.484375 334.707031 342.957031 341.773438 344.371094 355.550781 C 345.195312 363.675781 338.601562 362.027344 339.660156 363.558594 C 360.503906 394.761719 358.382812 425.496094 371.453125 538.191406 Z M 311.75 455.996094 C 315.402344 452.34375 317.523438 384.871094 315.875 384.871094 C 314.929688 384.871094 308.101562 459.644531 311.75 455.996094 Z M 311.75 455.996094 "/></g></g></svg>