<svg xmlns="http://www.w3.org/2000/svg" xmlns:xlink="http://www.w3.org/1999/xlink" width="1366" zoomAndPan="magnify" viewBox="0 0 1024.5 576" height="768" preserveAspectRatio="xMidYMid meet" version="1.2"><defs><clipPath id="eab1b8eead"><path d="M 284.785156 17.242188 L 739.0625 17.242188 L 739.0625 541.984375 L 284.785156 541.984375 Z M 284.785156 17.242188 "/></clipPath></defs><g id="23e2a351d4"><g clip-rule="nonzero" clip-path="url(#eab1b8eead)"><path style=" stroke:none;fill-rule:nonzero;fill:#000000;fill-opacity:1;" d="M 511.929688 541.671875 L 284.835938 410.550781 L 284.832031 148.34375 L 511.925781 17.242188 L 739.019531 148.335938 L 739.019531 410.550781 Z M 301.484375 400.941406 L 511.929688 522.445312 L 722.371094 400.941406 L 722.371094 157.945312 L 511.925781 36.464844 L 301.480469 157.957031 Z M 301.484375 400.941406 "/></g><path style=" stroke:none;fill-rule:nonzero;fill:#c8c8c8;fill-opacity:1;" d="M 529.277344 298.402344 L 528.597656 298.414062 L 494.148438 298.421875 L 493.484375 298.421875 L 331.066406 392.164062 L 331.816406 392.597656 L 331.789062 392.621094 L 511.105469 496.121094 L 511.375 495.964844 L 511.65625 496.117188 L 673.882812 402.484375 L 673.867188 402.449219 L 673.863281 382.699219 L 673.867188 381.902344 Z M 622.125 392.566406 L 511.363281 456.433594 L 400.632812 392.566406 L 511.382812 328.171875 Z M 622.125 392.566406 "/><path style=" stroke:none;fill-rule:nonzero;fill:#b30101;fill-opacity:1;" d="M 501.683594 65.167969 L 501.75 105.3125 L 354.828125 190.125 L 354.832031 233.320312 L 354.828125 235.285156 L 501.191406 150.8125 L 501.257812 190.964844 L 354.832031 275.5 L 354.839844 319.667969 L 501.742188 234.785156 L 501.765625 274.957031 L 320.078125 379.859375 L 319.988281 170.015625 Z M 501.683594 65.167969 "/><path style=" stroke:none;fill-rule:nonzero;fill:#5ce1e6;fill-opacity:1;" d="M 685.6875 157.988281 L 520.796875 62.789062 L 520.789062 63.652344 L 520.753906 63.640625 L 520.769531 273.863281 L 521.054688 274.027344 L 521.054688 274.34375 L 555.796875 294.398438 L 555.796875 208.121094 L 668.347656 273.09375 L 668.472656 359.4375 L 703.859375 379.859375 L 703.851562 293.957031 L 703.292969 292.96875 L 685.941406 262.9375 L 703.371094 252.859375 L 703.851562 252.589844 L 703.859375 189.457031 L 703.511719 188.875 L 686.027344 158.582031 Z M 668.476562 232.785156 L 555.78125 167.796875 L 555.757812 124.136719 L 668.609375 188.832031 Z M 668.476562 232.785156 "/></g></svg>